<?xml version="1.0" standalone="no"?><!DOCTYPE svg PUBLIC "-//W3C//DTD SVG 1.1//EN" "http://www.w3.org/Graphics/SVG/1.1/DTD/svg11.dtd"><svg t="1711935863000" class="icon" viewBox="0 0 1024 1024" version="1.1" xmlns="http://www.w3.org/2000/svg" p-id="2909" xmlns:xlink="http://www.w3.org/1999/xlink" width="48" height="48"><path d="M704.02002736 813.33118936L211.76945384 813.33118936c-95.34937727 0-172.92009891-77.57072164-172.92009891-172.92151291L38.84935493 397.5237456c0-95.34089891 77.57072164-172.90596877 172.92009891-172.90596877l448.76620448 0c15.45705899 0 27.9905714 12.53068722 27.99057141 27.98774621 0 15.45564501-12.53210119 27.9863336-27.99057141 27.9863336L211.76945384 280.59185526c-64.48754207 0-116.94743309 52.45282525-116.94743308 116.93189034L94.82202076 640.40967784c0 64.48754207 52.45989102 116.94743309 116.94743308 116.94743306l492.25057352 0c64.48612946 0 116.94602048-52.45989102 116.94602048-116.94743306 0 0.01413014-0.16108475-293.05672609-0.16108474-403.3558856 0-54.71507611 15.37792852-96.85142001 45.71977082-125.24894317 40.99886109-38.36498732 93.7597257-35.35242207 96.00360722-35.18851075 15.42597212 1.02444166 27.09895421 14.35631344 26.07451254 29.77804638-1.02161508 15.42738471-14.25740243 27.07775967-29.77098062 26.07309994-0.09184663 0-31.55704161-1.22932944-54.51301352 20.63437392-18.28027781 17.4169209-27.54264322 45.66183766-27.54264321 83.95334626 0 110.28361677 0.16249735 403.34175547 0.16249734 403.34175546C876.93871367 735.76046769 799.36940462 813.33118936 704.02002736 813.33118936z" p-id="2910" fill="#f0250f"></path><path d="M661.13760688 457.66624278L255.52370959 457.66624278c-15.45564501 0-27.9863336-12.53068722-27.98633361-27.98491961 0-15.45705899 12.53068722-27.98774621 27.98633361-27.98774623l405.61389591 0c15.45564501 0 27.9863336 12.53068722 27.98633361 27.98774623C689.12393911 445.1355542 676.59466448 457.66624278 661.13760688 457.66624278z" p-id="2911" fill="#f0250f"></path><path d="M661.13760688 634.84943228L255.52370959 634.84943228c-15.45564501 0-27.9863336-12.53210119-27.98633361-27.9863336 0-15.45705899 12.53068722-27.98774621 27.98633361-27.98774622l405.61389591 0c15.45564501 0 27.9863336 12.52927461 27.98633361 27.98774622C689.12393911 622.31591848 676.59466448 634.84943228 661.13760688 634.84943228z" p-id="2912" fill="#f0250f"></path><path d="M847.91380962 907.37493328m-55.97266582 0a54.69786669 54.69786669 0 1 0 111.94533167 0 54.69786669 54.69786669 0 1 0-111.94533167 0Z" p-id="2913" fill="#f0250f"></path><path d="M80.36255574 907.37493328m-55.97266583 0a54.69786669 54.69786669 0 1 0 111.94533167 0 54.69786669 54.69786669 0 1 0-111.94533167 0Z" p-id="2914" fill="#f0250f"></path></svg>