<?xml version="1.0" standalone="no"?><!DOCTYPE svg PUBLIC "-//W3C//DTD SVG 1.1//EN" "http://www.w3.org/Graphics/SVG/1.1/DTD/svg11.dtd"><svg t="1711614306452" class="icon" viewBox="0 0 1024 1024" version="1.1" xmlns="http://www.w3.org/2000/svg" p-id="4902" xmlns:xlink="http://www.w3.org/1999/xlink" width="48" height="48"><path d="M569.088 499.456h-125.696c-4.352 0-7.168-4.352-5.632-8.192 6.656-16.896 20.736-53.76 20.224-55.296-1.024 0.256-2.816 1.024-5.376 2.816-8.192 5.632-18.688 11.776-30.976 18.944l-3.84 2.304c-17.152 10.24-36.864 21.76-54.272 34.56-18.944 13.824-28.416 25.344-28.416 35.072 0 6.656 5.12 13.568 14.592 19.968 25.6 17.92 96.512 56.064 111.104 63.488h0.256c0.512-0.768-16.128-38.912-23.552-56.32-1.792-4.096 1.024-8.448 5.632-8.448h126.976c22.272 2.816 64.256 20.224 64.256 64.768 0 38.656-33.536 64.768-64.768 65.024h-150.016c-13.312 0-24.32 10.752-24.32 24.32v0.512c0 13.312 11.008 24.32 24.32 24.32h150.016c5.376 0 53.504-1.024 85.504-33.28 19.2-19.456 28.672-46.592 28.16-80.384v-1.024c0-0.256 1.28-49.664-30.976-83.2-19.712-19.712-47.616-29.952-83.2-29.952z m0 0" fill="#ffffff" p-id="4903"></path><path d="M980.992 323.84c0-29.184-8.192-57.856-23.552-82.688l-67.328-108.544c-14.336-23.04-39.68-37.12-66.816-37.12H196.864c-27.136 0-52.48 14.08-66.816 37.12L62.208 241.152c-15.616 24.832-23.808 53.76-23.808 83.2L40.96 604.16c0 17.664 10.752 32.256 28.416 32.256 17.664 0 28.16-14.336 28.16-32.256V346.368h826.88v494.592c0 17.408-14.08 31.488-31.488 31.488H129.28c-17.408 0-31.488-14.08-31.488-31.488v-237.568c0-17.664-9.984-32-27.904-32S40.96 585.728 40.96 603.392v247.04c0 43.264 35.072 78.592 78.592 78.592h783.104c43.264 0 78.592-35.072 78.592-78.592l-0.256-526.592zM107.264 279.04l65.024-112.128c5.888-9.216 15.872-14.848 26.624-14.848h622.08c11.008 0 20.992 5.632 26.624 14.848l65.024 112.128H107.264z m7.68 0" fill="#ffffff" p-id="4904"></path></svg>