<?xml version="1.0" standalone="no"?><!DOCTYPE svg PUBLIC "-//W3C//DTD SVG 1.1//EN" "http://www.w3.org/Graphics/SVG/1.1/DTD/svg11.dtd"><svg t="1712568279932" class="icon" viewBox="0 0 1024 1024" version="1.1" xmlns="http://www.w3.org/2000/svg" p-id="5449" xmlns:xlink="http://www.w3.org/1999/xlink" width="64" height="64"><path d="M430.3 595l265.8-268.7 30.3 30-296.1 299.4-125.5-126.9 30.3-30 95.2 96.2z m316.4-444.6c20 0 39.7-2.7 58.8-7.9 8.6-2.3 21.9-7.3 39.5-14.8l29.7-12.6v316.1c0 153.4-65.5 298.6-178.8 395.5L512.9 970l-13.1-10.2-172.3-133.6c-112.7-96.3-178.1-241.5-178.1-394.9V115.1l29.7 12.6c17.4 7.4 30.5 12.3 38.9 14.6 19.3 5.3 39.2 8 59.4 8 59.1 0 124.6-22.9 196.4-69.3 0.7-0.4 10-6.8 26.3-17.8l12.3-8.3 12.1 8.6c81.9 58.2 156 86.9 222.2 86.9z m70 33.3c-22.8 6.2-46.2 9.4-70.1 9.4-72.6 0-150.8-29-234.8-86.3-9.4 6.4-14.2 9.6-15 10.2-78.2 50.5-151.4 76.1-219.5 76.1-24 0-47.7-3.2-70.7-9.6-4.2-1.2-9.1-2.7-14.6-4.7v252.4c0 141.1 60.1 274.4 162.4 361.8l158.3 122.8 156.1-122.1C771.9 705.7 832 572.3 832 431.3V178.8c-5.8 2.1-10.9 3.7-15.3 4.9z" p-id="5450" fill="#757575"></path></svg>