<?xml version="1.0" standalone="no"?><!DOCTYPE svg PUBLIC "-//W3C//DTD SVG 1.1//EN" "http://www.w3.org/Graphics/SVG/1.1/DTD/svg11.dtd"><svg t="1711614315936" class="icon" viewBox="0 0 1024 1024" version="1.1" xmlns="http://www.w3.org/2000/svg" p-id="5190" xmlns:xlink="http://www.w3.org/1999/xlink" width="48" height="48"><path d="M884.224 321.024c-22.016-21.504-48.64-38.4-77.312-49.664-28.672-10.752-60.416-16.384-94.208-16.384h-7.168c-66.048 0-139.264 36.352-175.616 56.832 11.776-137.728 137.216-163.84 143.36-164.864 16.896-3.072 27.648-18.944 24.576-35.84-3.072-16.896-18.944-27.648-35.84-24.576-2.048 0.512-53.248 9.728-101.888 47.104-38.912 30.208-82.944 81.92-91.648 168.448-35.84-20.48-93.184-46.592-154.112-46.592-53.76 0-97.792 8.192-133.632 25.088-36.864 16.896-65.536 43.008-86.528 78.336-2.048 3.072-3.584 6.144-5.12 9.216-1.536 2.56-2.56 5.12-3.584 7.168-24.576 49.664-36.352 115.2-36.352 200.704 0 42.496 7.168 84.992 20.48 125.44 13.824 40.96 33.28 80.384 57.856 115.712l3.072 4.608c6.144 9.216 12.8 17.92 19.968 26.112 13.824 17.408 29.184 33.28 45.056 48.64 6.656 6.144 13.824 12.288 20.992 18.432 5.632 4.608 11.776 9.216 17.408 13.824 4.608 3.584 9.216 6.656 13.312 9.728l9.216 6.144 4.608 3.072c76.8 50.176 162.816 76.288 250.88 76.288 11.776 0 23.552-0.512 34.816-1.024h2.048c14.848-1.024 29.696-3.072 44.544-5.632l2.56-0.512c16.384-3.072 32.256-6.656 48.128-10.752l2.56-1.024c47.104-13.824 91.136-34.816 131.584-61.952 39.424-26.624 74.752-59.904 103.936-97.28 60.928-78.336 92.672-171.52 92.672-269.824 0-107.52-32.256-197.632-90.624-254.976z m-50.688 486.912c-25.6 32.768-55.808 60.928-90.112 84.48-35.328 24.064-73.728 41.984-114.176 53.76l-2.56 0.512c-13.824 4.096-27.648 7.168-41.472 9.728l-2.048 0.512c-12.8 2.048-25.6 3.584-38.4 4.608h-1.536c-10.24 0.512-20.48 1.024-30.72 1.024-75.776 0-150.528-22.528-216.064-66.048-1.536-1.024-2.56-2.048-4.096-2.56-2.56-1.536-5.12-3.584-8.192-5.632-3.072-2.048-7.68-5.632-11.776-8.704l-15.36-12.288c-6.144-5.12-12.288-10.752-18.432-16.384-14.336-13.312-27.648-27.648-39.424-42.496-6.144-7.168-11.776-15.36-17.408-23.04-1.024-1.536-2.048-2.56-2.56-4.096-21.504-30.72-38.4-64.512-50.176-100.352-11.264-34.304-17.408-70.144-17.408-105.984 0-75.776 9.728-132.608 29.696-173.568 1.024-1.536 1.536-3.584 2.56-5.12 1.024-2.048 2.56-4.608 3.584-6.656 14.848-25.088 33.792-41.984 59.392-53.76 28.16-12.8 63.488-18.944 108.032-19.456 77.312 0 153.088 57.856 153.6 58.368l34.816 27.136 37.376-24.576c25.6-16.896 104.96-60.928 164.864-60.928h6.656c26.624 0 50.688 4.096 72.192 12.288 20.992 8.192 39.936 19.968 56.32 36.352 46.592 45.568 72.192 120.32 72.192 210.432 0.512 84.992-27.136 164.864-79.36 232.448z" p-id="5191" fill="#ffffff"></path><path d="M176.128 71.168c0 1.536 0 3.072 0.512 4.608v1.024c0.512 2.048 0.512 4.608 1.024 6.656 8.704 42.496 45.568 86.528 98.816 117.76 35.328 22.016 74.752 33.792 109.568 33.792h1.024c10.24 0 19.968-1.024 29.696-3.584 20.992-5.12 36.864-15.872 45.568-30.208 2.56-4.608 4.096-9.216 5.632-13.824 0-1.024 0.512-2.048 0.512-3.072 0.512-1.536 0.512-3.584 1.024-5.632 3.072-22.528-4.608-49.152-22.016-74.752-17.92-26.624-45.056-50.688-77.824-70.144C334.336 11.776 294.912 0 260.096 0c-10.752 0-20.992 1.024-30.72 3.584-20.992 5.12-36.864 15.872-45.568 30.208-5.632 10.752-8.192 22.528-7.68 34.304v3.072z m67.584-8.192c4.608-1.024 10.24-1.536 15.872-1.536 23.552 0 52.224 9.216 77.312 24.576l0.512 0.512 0.512 0.512c25.088 14.848 45.056 32.768 57.856 51.712 9.728 14.848 12.288 25.6 12.288 30.72-1.536 0.512-3.584 1.536-6.144 2.048-5.12 1.024-10.24 1.536-15.36 1.536h-0.512c-23.552 0-52.224-9.216-77.312-24.576h-0.512l-0.512-0.512c-45.568-26.624-66.048-57.856-69.632-76.8v-1.024c0-0.512 0-1.024-0.512-1.536v-3.072-0.512c1.024-0.512 3.072-1.024 6.144-2.048z" p-id="5192" fill="#ffffff"></path></svg>