<?xml version="1.0" standalone="no"?><!DOCTYPE svg PUBLIC "-//W3C//DTD SVG 1.1//EN" "http://www.w3.org/Graphics/SVG/1.1/DTD/svg11.dtd"><svg t="1713172068299" class="icon" viewBox="0 0 1024 1024" version="1.1" xmlns="http://www.w3.org/2000/svg" p-id="2911" xmlns:xlink="http://www.w3.org/1999/xlink" width="64" height="64"><path d="M504.350793 253.712638c-117.098218 0-177.381665 86.585966-177.381665 207.608972l88.704425 0c0 0-3.781812-118.618595 88.677239-118.618595 89.322644 0 88.731611 71.747692 88.731611 88.952116 0 101.693075-147.854133 96.809745-147.854133 237.275451 0 0 88.704425 0.47323 88.704425 0 0-88.998432 147.874271-122.841417 147.874271-237.275451C681.805959 316.089372 626.417925 253.712638 504.350793 253.712638zM504.350793 16.445242c-277.596651 0-502.678882 225.73267-502.678882 504.197245 0 278.45652 225.08223 504.18919 502.678882 504.18919 277.667132 0 502.706067-225.73267 502.706067-504.18919C1007.057867 242.177912 782.017925 16.445242 504.350793 16.445242zM504.350793 935.565417c-228.438135 0-413.623058-185.785019-413.623058-414.92293 0-229.149993 185.184923-414.915882 413.623058-414.915882 228.488478 0 413.688505 185.765888 413.688505 414.915882C918.040304 749.780398 732.840278 935.565417 504.350793 935.565417zM496.95431 728.084318l-13.936117 0c-20.73351 0-37.550288 16.860073-37.550288 37.651982l0 14.004584c0 20.784861 16.816778 37.632852 37.550288 37.632852l13.936117 0c20.710352 0 37.531157-16.847991 37.531157-37.632852l0-14.004584C534.485468 744.944391 517.664662 728.084318 496.95431 728.084318z" p-id="2912" fill="#757575"></path></svg>