<?xml version="1.0" standalone="no"?><!DOCTYPE svg PUBLIC "-//W3C//DTD SVG 1.1//EN" "http://www.w3.org/Graphics/SVG/1.1/DTD/svg11.dtd"><svg t="1712124411898" class="icon" viewBox="0 0 1024 1024" version="1.1" xmlns="http://www.w3.org/2000/svg" p-id="2911" width="64" height="64" xmlns:xlink="http://www.w3.org/1999/xlink"><path d="M330.54 931.58c-39.53 0-71.7-32.16-71.7-71.69s32.16-71.7 71.7-71.7c25.53 0 49.32 13.74 62.09 35.85 12.77 22.11 12.77 49.58 0 71.7-12.77 22.1-36.56 35.84-62.09 35.84z m0-100.21c-15.72 0-28.51 12.79-28.51 28.51 0 15.72 12.79 28.51 28.51 28.51 10.15 0 19.61-5.46 24.69-14.25 5.07-8.79 5.07-19.72 0-28.51-5.08-8.8-14.54-14.26-24.69-14.26z m429.98 100.2c-0.52 0-1.05-0.01-1.57-0.02-38.65-0.86-70.1-33.01-70.12-71.66-0.01-38.66 31.42-70.83 70.08-71.7 25.95-0.5 50.27 12.96 63.43 35.35 13.15 22.39 13.16 50.22 0.02 72.62-12.88 21.95-36.46 35.4-61.84 35.41z m-0.63-100.21c-15.37 0.35-27.87 13.14-27.87 28.51 0 15.38 12.52 28.16 27.88 28.5 10.34 0.32 19.99-5.16 25.22-14.08 5.22-8.9 5.22-19.97-0.01-28.88-5.23-8.89-14.68-14.28-25.22-14.05z m46.91-54.29H263.89c-27.49 0-49.85-21.99-49.85-49.02 0-1.56 0.13-2.9 0.25-3.92v-36.34c0-11.92 9.67-21.59 21.59-21.59s21.59 9.67 21.59 21.59v35.31c0.11 1.25 0.1 2.51-0.01 3.76-0.05 0.6-0.13 1.19-0.2 1.77 0.33 2.95 3.18 5.26 6.63 5.26H806.8c4.51 0 7-9.78 7.27-10.9 2.92-12.16 2.07-32.42-3.39-39.35-0.68-0.86-1.21-1.54-3.88-1.54H342.37c-21.4 0-38.81-17.41-38.81-38.81v-36.72c0-10.36 4.02-20.1 11.33-27.42 7.32-7.34 17.07-11.38 27.44-11.38h0.02c81.55 0.04 411.12 0.06 411.12 0.06 22.51 0 35.26-11.97 38.96-36.61 0.04-0.27 0.08-0.53 0.14-0.8 0.25-1.35 25.5-135.12 33.39-179.49 1.81-10.21-1.57-14.19-2.68-15.5-3.05-3.6-13.99-11.89-47.78-11.51h-0.26c-11.8 0-21.44-9.5-21.59-21.33-0.14-11.92 9.41-21.7 21.33-21.85 38.53-0.48 65.78 8.54 81.23 26.75 11.53 13.6 15.77 31.23 12.26 50.99-7.72 43.41-31.9 171.6-33.4 179.56-6.93 45.01-38.16 72.96-81.6 72.96 0 0-318.38-0.02-406.73-0.06v27.97H806.8c15.45 0 28.52 6.22 37.79 18 18.05 22.9 15.39 59.84 11.46 76.18-6.53 27.13-25.4 43.98-49.25 43.98zM235.88 570.23c-11.92 0-21.59-9.67-21.59-21.59V288.69c0-5.07-4.12-9.19-9.18-9.19h-86.62c-19.7 0.34-39.35-13.27-48.36-33.69-5.35-12.14-11.84-40.99 1.92-63.36 6.41-10.42 19.47-23.11 45.32-24.46 0.37-0.02 0.75-0.03 1.12-0.03h141.26c1.48-0.18 2.79-0.28 4.15-0.28 25.68 0 45.84 16.94 51.37 43.15l0.15 0.77 11.98 69.29a10.7 10.7 0 0 0 10.55 8.91c63.44-0.02 190.76-0.04 302.96-0.05 11.92 0 21.59 9.66 21.59 21.59 0 11.92-9.67 21.59-21.59 21.59-112.19 0.01-239.51 0.03-302.94 0.05h-0.02c-26.28 0-48.61-18.81-53.1-44.73l-11.91-68.85c-1.76-7.87-5.54-8.48-8.35-8.53l-1.25 0.15c-0.75 0.08-1.51 0.12-2.27 0.12H119.1c-5.43 0.35-8.89 1.67-10.28 3.94-3.32 5.39-1.71 17.59 0.81 23.3 2.18 4.94 6.42 7.94 8.53 7.94h86.94c28.88 0 52.37 23.49 52.37 52.37v259.95c0 11.92-9.67 21.59-21.59 21.59z" fill="#ffffff" p-id="2912"></path><path d="M844.14 271.84c12.55-2.67 25.09-5.81 37.75-8.01 7.2-1.16 10.69-4.06 11.85-11.73 1.51-11.38 4.41-22.53 6.74-33.68 0.35-1.97 0.58-3.95 2.55-5.11 2.9 14.29 6.16 28.46 8.83 42.63 0.82 4.29 2.56 5.92 6.74 6.73 13.94 2.79 27.76 6.04 41.59 10.46-13.71 3.02-27.3 6.16-41 8.83-4.53 0.93-6.51 2.56-7.44 7.2-2.56 13.94-5.69 27.88-8.83 42.74-3.95-6.85-3.83-14.17-5.58-20.79-1.98-7.55-3.6-15.21-4.76-23-0.58-4.18-2.67-5.34-6.39-6.15-13.94-2.79-27.88-5.92-41.93-8.94 0-0.25-0.12-0.72-0.12-1.18z" fill="#ffffff" opacity=".67" p-id="2913"></path><path d="M80.25 854.62c13.31-2.83 26.62-6.16 40.05-8.5 7.64-1.23 11.34-4.31 12.57-12.44 1.6-12.08 4.68-23.91 7.15-35.73 0.37-2.09 0.61-4.19 2.71-5.42 3.08 15.16 6.53 30.19 9.36 45.22 0.86 4.56 2.71 6.28 7.15 7.14 14.79 2.96 29.45 6.41 44.12 11.09-14.54 3.2-28.96 6.53-43.5 9.36-4.81 0.99-6.9 2.71-7.89 7.64-2.71 14.78-6.04 29.57-9.36 45.34-4.19-7.27-4.07-15.03-5.91-22.06-2.1-8.01-3.82-16.14-5.05-24.4-0.61-4.43-2.83-5.67-6.78-6.53-14.79-2.96-29.57-6.28-44.48-9.49-0.01-0.23-0.14-0.73-0.14-1.22z" fill="#ffffff" p-id="2914"></path><path d="M325.64 167.86c16.17-3.44 32.34-7.48 48.65-10.33 9.28-1.5 13.77-5.24 15.27-15.12 1.95-14.67 5.69-29.04 8.68-43.41 0.45-2.54 0.75-5.09 3.3-6.59 3.74 18.41 7.93 36.67 11.37 54.94 1.05 5.53 3.3 7.63 8.68 8.68 17.97 3.59 35.78 7.78 53.59 13.48-17.67 3.89-35.18 7.93-52.84 11.37-5.84 1.2-8.38 3.3-9.58 9.28-3.3 17.96-7.34 35.93-11.38 55.08-5.09-8.83-4.93-18.26-7.19-26.79-2.54-9.73-4.64-19.61-6.13-29.64-0.75-5.39-3.44-6.88-8.24-7.93-17.96-3.59-35.93-7.63-54.04-11.53-0.14-0.14-0.14-0.74-0.14-1.49z" fill="#ffffff" opacity=".2" p-id="2915"></path><path d="M552.89 577.86m-194.32 0a194.32 194.32 0 1 0 388.64 0 194.32 194.32 0 1 0-388.64 0Z" fill="#ffffff" opacity=".2" p-id="2916"></path><path d="M708.35 301.71m-24.6 0a24.6 24.6 0 1 0 49.2 0 24.6 24.6 0 1 0-49.2 0Z" fill="#ffffff" p-id="2917"></path><path d="M235.74 620.38m-24.6 0a24.6 24.6 0 1 0 49.2 0 24.6 24.6 0 1 0-49.2 0Z" fill="#ffffff" p-id="2918"></path></svg>