<?xml version="1.0" standalone="no"?><!DOCTYPE svg PUBLIC "-//W3C//DTD SVG 1.1//EN" "http://www.w3.org/Graphics/SVG/1.1/DTD/svg11.dtd"><svg t="1712482083926" class="icon" viewBox="0 0 1024 1024" version="1.1" xmlns="http://www.w3.org/2000/svg" p-id="4413" width="64" height="64" xmlns:xlink="http://www.w3.org/1999/xlink"><path d="M669.325316 1024H120.995791c-12.828222 0-23.296051-10.365203-23.296052-23.296051V23.296051C97.802365 10.365203 108.167569 0 120.995791 0h781.905792c12.828222 0 23.296051 10.365203 23.296052 23.296051v743.83163c0 6.157547-2.463019 12.109842-6.773301 16.420124L685.74544 1017.226699c-4.310283 4.310283-10.262578 6.773301-16.420124 6.773301z m-525.033474-46.592103h515.386651L879.708158 757.378232V46.592103H144.291842v930.815794z" p-id="4414" fill="#bbbbbb"></path><path d="M774.619363 226.905592H249.380637c-12.828222 0-23.296051-10.365203-23.296051-23.296051 0-12.828222 10.467829-23.296051 23.296051-23.296051h525.238726c12.828222 0 23.296051 10.365203 23.296051 23.296051 0 12.828222-10.467829 23.296051-23.296051 23.296051zM774.619363 437.596312H249.380637c-12.828222 0-23.296051-10.365203-23.296051-23.296051S236.552415 391.004209 249.380637 391.004209h525.238726c12.828222 0 23.296051 10.365203 23.296051 23.296052s-10.467829 23.296051-23.296051 23.296051zM774.619363 648.389657H249.380637c-12.828222 0-23.296051-10.365203-23.296051-23.296051s10.467829-23.296051 23.296051-23.296051h525.238726c12.828222 0 23.296051 10.365203 23.296051 23.296051s-10.467829 23.296051-23.296051 23.296051zM669.325316 1024c-2.976148 0-6.054921-0.615755-8.928443-1.744638-8.723191-3.591902-14.367609-12.109842-14.367609-21.448788V767.025055c0-12.828222 10.467829-23.296051 23.296052-23.296051h233.678893c9.441571 0 17.856885 5.644418 21.448788 14.367609s1.642012 18.677891-5.028663 25.348566L685.74544 1017.226699c-4.412908 4.412908-10.365203 6.773301-16.420124 6.773301z m23.296051-233.678894v154.246543l154.246542-154.246543H692.621367z" p-id="4415" fill="#bbbbbb"></path></svg>